<?xml version="1.0" standalone="no"?><!DOCTYPE svg PUBLIC "-//W3C//DTD SVG 1.1//EN" "http://www.w3.org/Graphics/SVG/1.1/DTD/svg11.dtd"><svg t="1681304009008" class="icon" viewBox="0 0 1227 1024" version="1.1" xmlns="http://www.w3.org/2000/svg" p-id="5112" xmlns:xlink="http://www.w3.org/1999/xlink" width="239.6484375" height="200"><path d="M526.770537 428.700518a285.446632 284.916062 0 1 0 570.893264 0 285.446632 284.916062 0 1 0-570.893264 0Z" fill="#FAD700" p-id="5113"></path><path d="M620.681418 218.594819a285.446632 285.446632 0 1 1 319.933678 465.840414 285.446632 285.446632 0 0 0-319.933678-465.840414z" fill="#FFBE34" p-id="5114"></path><path d="M657.290744 190.474611a285.446632 285.446632 0 1 1 275.896373 497.674612 285.446632 285.446632 0 0 0-275.896373-497.674612z" fill="#FF9019" p-id="5115"></path><path d="M699.20577 393.152332m-21.222798 0a21.222798 21.222798 0 1 0 42.445596 0 21.222798 21.222798 0 1 0-42.445596 0Z" fill="" p-id="5116"></path><path d="M874.293853 393.152332m-21.222798 0a21.222798 21.222798 0 1 0 42.445596 0 21.222798 21.222798 0 1 0-42.445596 0Z" fill="" p-id="5117"></path><path d="M738.998516 478.043523h108.766839a54.648705 54.648705 0 0 1-108.766839 0z" fill="#FF8472" p-id="5118"></path><path d="M793.647221 537.997927h-6.36684a65.260104 65.260104 0 0 1-58.362694-58.362694 10.611399 10.611399 0 0 1 10.611399-11.672539h108.766839a10.611399 10.611399 0 0 1 10.611399 11.672539 65.260104 65.260104 0 0 1-65.260103 58.362694z m-40.853886-49.343005a44.037306 44.037306 0 0 0 68.974093 18.039379 43.506736 43.506736 0 0 0 13.264249-18.039379z" fill="" p-id="5119"></path><path d="M930.534267 481.757513m-24.406217 0a24.406218 24.406218 0 1 0 48.812435 0 24.406218 24.406218 0 1 0-48.812435 0Z" fill="#FF9218" p-id="5120"></path><path d="M771.893853 747.042487a306.66943 306.66943 0 0 1-278.549223-434.536788 21.254632 21.254632 0 0 1 38.731606 17.508809 264.223834 264.223834 0 0 0 430.822798 293.405181 21.222798 21.222798 0 1 1 30.773057 29.181347 306.66943 306.66943 0 0 1-221.778238 94.441451z m240.348186-131.050777a21.222798 21.222798 0 0 1-18.039378-32.895337 263.162694 263.162694 0 0 0 28.650777-59.954404 21.222798 21.222798 0 0 1 40.323316 13.264249 305.60829 305.60829 0 0 1-32.895336 69.504663 21.222798 21.222798 0 0 1-18.039379 10.080829z m45.098446-153.865285a21.222798 21.222798 0 0 1-21.222798-21.222798 264.754404 264.754404 0 0 0-263.693264-263.693264l-27.059068 1.06114a21.238715 21.238715 0 0 1-1.591709-42.445596l27.589637-1.06114h1.06114a307.2 307.2 0 0 1 306.66943 306.13886 21.222798 21.222798 0 0 1-21.222798 21.222798z m-502.980311-184.638342a21.222798 21.222798 0 0 1-15.917098-35.017617 308.26114 308.26114 0 0 1 55.179274-50.934715 21.275855 21.275855 0 1 1 24.936788 34.487047 265.815544 265.815544 0 0 0-47.751296 43.506736 21.222798 21.222798 0 0 1-16.447668 7.958549zM656.229604 201.61658a21.222798 21.222798 0 0 1-7.427979-40.853886l24.936787-9.550259a21.328912 21.328912 0 0 1 15.386529 39.792746l-25.467358 9.019689z" fill="" p-id="5121"></path><path d="M616.436858 481.757513m-24.406218 0a24.406218 24.406218 0 1 0 48.812436 0 24.406218 24.406218 0 1 0-48.812436 0Z" fill="#FF9218" p-id="5122"></path><path d="M830.787117 868.012435a15.917098 15.917098 0 0 1-15.917098-13.264248l-7.42798-42.976166a15.917098 15.917098 0 0 1 31.303627-5.3057l7.42798 42.976166a15.917098 15.917098 0 0 1-12.733679 18.569948z m-282.263212-71.096373a15.917098 15.917098 0 0 1-13.794819-23.875647l21.753368-37.670467a15.92771 15.92771 0 1 1 27.589637 15.917099l-21.753368 37.670466a15.917098 15.917098 0 0 1-13.794818 7.958549z m544.364767-56.240414a15.917098 15.917098 0 0 1-10.08083-3.71399l-33.425906-28.120207a15.996684 15.996684 0 1 1 20.692228-24.406218l33.425906 28.120207a15.917098 15.917098 0 0 1-10.080829 28.120208zM377.149811 561.873575a15.917098 15.917098 0 0 1-5.305699-30.773057l40.853886-14.855958a15.917098 15.917098 0 0 1 11.141969 29.711917l-41.384456 14.855958z m834.586529-87.013471h-43.506736a15.917098 15.917098 0 0 1 0-31.834197h43.506736a15.917098 15.917098 0 1 1 0 31.834197zM438.695925 286.507772l-5.305699-1.06114-40.853886-14.855958a15.917098 15.917098 0 1 1 11.141969-29.711918l40.853886 14.855959a15.917098 15.917098 0 0 1-5.3057 30.773057z m659.498446-63.668394a15.917098 15.917098 0 0 1-10.080829-28.120207l32.895337-27.589637a15.996684 15.996684 0 1 1 20.692228 24.406217l-32.895337 27.589638a15.917098 15.917098 0 0 1-10.611399 3.713989z m-476.451813-123.092228a15.917098 15.917098 0 0 1-13.794819-7.958549l-21.753368-37.670466a15.92771 15.92771 0 1 1 27.589637-15.917099l21.753368 37.670467a15.917098 15.917098 0 0 1-13.794818 23.875647z m260.509844-24.936787h-2.65285a15.917098 15.917098 0 0 1-12.733678-18.569948l7.427979-42.976166a15.917098 15.917098 0 0 1 31.303627 5.305699l-7.427979 42.976166a15.917098 15.917098 0 0 1-15.917099 13.264249z" fill="" p-id="5123"></path><path d="M380.333231 969.881865a304.54715 304.54715 0 1 1 278.549223-427.639378 214.880829 214.880829 0 1 1 31.303627 427.639378z" fill="#D2F7FF" p-id="5124"></path><path d="M774.546703 951.311917a213.819689 213.819689 0 0 0-202.677721-338.503627A304.54715 304.54715 0 0 0 170.227532 457.351295l-22.283938 11.141969a304.54715 304.54715 0 0 1 510.40829 73.749223 214.880829 214.880829 0 0 1 115.664249 409.6z" fill="#8BE6FA" p-id="5125"></path><path d="M296.503179 651.539896m-24.406217 0a24.406218 24.406218 0 1 0 48.812435 0 24.406218 24.406218 0 1 0-48.812435 0Z" fill="" p-id="5126"></path><path d="M497.58919 651.539896m-24.406218 0a24.406218 24.406218 0 1 0 48.812435 0 24.406218 24.406218 0 1 0-48.812435 0Z" fill="" p-id="5127"></path><path d="M347.437894 719.98342h115.133679a62.607254 62.607254 0 1 1-115.133679 0z" fill="#FF8472" p-id="5128"></path><path d="M405.270019 817.60829a73.218653 73.218653 0 0 1-67.382384-101.86943 10.611399 10.611399 0 0 1 9.550259-6.366839h115.133679a10.611399 10.611399 0 0 1 9.550259 6.366839 73.218653 73.218653 0 0 1-67.382383 101.86943z m-49.873575-87.013471a52.526425 52.526425 0 0 0 2.122279 34.487046 52.017078 52.017078 0 0 0 98.155441-34.487046z" fill="" p-id="5129"></path><path d="M560.727013 753.409326m-28.120207 0a28.120207 28.120207 0 1 0 56.240415 0 28.120207 28.120207 0 1 0-56.240415 0Z" fill="#FAD700" p-id="5130"></path><path d="M202.061728 753.409326m-28.120207 0a28.120207 28.120207 0 1 0 56.240415 0 28.120207 28.120207 0 1 0-56.240415 0Z" fill="#FAD700" p-id="5131"></path><path d="M325.684526 1024a325.769948 325.769948 0 0 1-281.732642-489.185492 21.222798 21.222798 0 1 1 36.609326 21.222798A283.324352 283.324352 0 0 0 326.215096 981.554404h168.721244a21.222798 21.222798 0 0 1 0 42.445596H325.684526z m294.996892-0.53057a21.222798 21.222798 0 1 1 0-42.445596h15.386528a195.249741 195.249741 0 0 0 25.997928-2.12228 193.700477 193.700477 0 0 0-54.118135-383.602072 21.222798 21.222798 0 0 1-22.283938-12.203109 283.324352 283.324352 0 0 0-259.448705-168.721243 21.222798 21.222798 0 0 1 0-42.445596 325.769948 325.769948 0 0 1 291.282902 179.863212 236.103627 236.103627 0 0 1 50.404145 469.023834 238.225907 238.225907 0 0 1-31.834197 2.12228z m-57.832125 0h-16.447668a21.222798 21.222798 0 0 1 0-42.445596h16.447668a21.222798 21.222798 0 0 1 0 42.445596zM124.067946 491.307772a21.222798 21.222798 0 0 1-14.325388-37.139896 325.239378 325.239378 0 0 1 83.830051-54.118135 21.254632 21.254632 0 0 1 17.508809 38.731606A282.793782 282.793782 0 0 0 138.393335 486.002073a21.222798 21.222798 0 0 1-14.325389 5.305699z" fill="" p-id="5132"></path></svg>